<?xml version="1.0"?>
<svg version="1.1" id="圖層_1" xmlns="http://www.w3.org/2000/svg" x="0" y="0" viewBox="0 0 100 100" xml:space="preserve"><path fill="#f93" d="M10 10h80v26.667H10z"/><path fill="#f7f7f7" d="M10 36.667h80v26.667H10z"/><path fill="#128807" d="M10 63.333h80V90H10z"/><g><path d="M50 39.333c-5.891 0-10.667 4.776-10.667 10.667S44.109 60.667 50 60.667 60.667 55.891 60.667 50 55.891 39.333 50 39.333zm8.792 13.805a.465.465 0 0 0-.356.86 9.26 9.26 0 0 1-.757 1.307.467.467 0 0 0-.568.738 9.285 9.285 0 0 1-1.068 1.068.465.465 0 0 0-.738.568c-.413.286-.85.539-1.307.757a.466.466 0 0 0-.86.356c-.47.168-.958.299-1.459.39a.466.466 0 0 0-.923.12 9.431 9.431 0 0 1-1.51 0 .466.466 0 0 0-.923-.12 9.322 9.322 0 0 1-1.459-.39.465.465 0 0 0-.86-.356 9.26 9.26 0 0 1-1.307-.757.467.467 0 0 0-.738-.568 9.285 9.285 0 0 1-1.068-1.068.465.465 0 0 0-.568-.738 9.415 9.415 0 0 1-.757-1.307.466.466 0 0 0-.356-.86 9.242 9.242 0 0 1-.39-1.459.466.466 0 0 0-.12-.923 9.431 9.431 0 0 1 0-1.51.466.466 0 0 0 .12-.923c.091-.502.223-.989.39-1.459a.465.465 0 0 0 .356-.86 9.26 9.26 0 0 1 .757-1.307.467.467 0 0 0 .568-.738 9.285 9.285 0 0 1 1.068-1.068.465.465 0 0 0 .738-.568c.413-.286.85-.539 1.307-.757a.466.466 0 0 0 .86-.356c.47-.168.958-.299 1.459-.39a.466.466 0 0 0 .923-.12 9.431 9.431 0 0 1 1.51 0 .466.466 0 0 0 .923.12c.502.091.989.223 1.459.39a.465.465 0 0 0 .86.356 9.26 9.26 0 0 1 1.307.757.467.467 0 0 0 .738.568 9.285 9.285 0 0 1 1.068 1.068.465.465 0 0 0 .568.738c.286.413.539.85.757 1.307a.466.466 0 0 0 .356.86c.168.47.299.958.39 1.459a.466.466 0 0 0 .12.923 9.431 9.431 0 0 1 0 1.51.466.466 0 0 0-.12.923 9.242 9.242 0 0 1-.39 1.459z" fill="#008"/><path d="M51.384 51.249c.066-.073.127-.152.181-.235l1.507 1.129 5.01 2.523-4.69-3.077-1.732-.741c.045-.088.084-.179.114-.274l1.748.701 5.492 1.14-5.326-1.758-1.864-.267c.02-.096.032-.194.037-.295l1.871.225 5.6-.32-5.6-.32-1.871.225a1.803 1.803 0 0 0-.037-.295l1.864-.267 5.326-1.758-5.492 1.14-1.748.701a2.001 2.001 0 0 0-.114-.274l1.732-.741 4.69-3.077-5.01 2.523-1.507 1.129a1.958 1.958 0 0 0-.181-.235l1.482-1.164L56.6 43.4l-4.186 3.734-1.164 1.482a1.882 1.882 0 0 0-.235-.181l1.129-1.507 2.523-5.01-3.077 4.69-.741 1.732a1.778 1.778 0 0 0-.274-.114l.701-1.748 1.14-5.492-1.758 5.326-.267 1.864a1.903 1.903 0 0 0-.295-.037l.225-1.871-.32-5.6-.32 5.6.225 1.871c-.1.005-.199.016-.295.037l-.267-1.864-1.758-5.326 1.14 5.492.701 1.748c-.095.031-.186.07-.274.114l-.741-1.732-3.077-4.69 2.523 5.01 1.129 1.507a1.958 1.958 0 0 0-.235.181l-1.164-1.482L43.4 43.4l3.734 4.186 1.482 1.164a1.882 1.882 0 0 0-.181.235l-1.507-1.129-5.01-2.523 4.69 3.077 1.732.741a1.778 1.778 0 0 0-.114.274l-1.748-.701-5.492-1.14 5.326 1.758 1.864.267c-.02.096-.032.194-.037.295l-1.871-.225-5.6.32 5.6.32 1.871-.225c.005.1.016.199.037.295l-1.864.267-5.326 1.758 5.492-1.14 1.748-.701c.031.095.07.186.114.274l-1.732.741-4.69 3.077 5.01-2.523 1.507-1.129c.054.083.115.161.181.235l-1.482 1.164L43.4 56.6l4.186-3.734 1.164-1.482c.073.066.152.127.235.181l-1.129 1.507-2.523 5.01 3.077-4.69.741-1.732c.088.045.179.084.274.114l-.701 1.748-1.14 5.492 1.758-5.326.267-1.864c.096.02.194.032.295.037l-.225 1.871.32 5.6.32-5.6-.225-1.871c.1-.005.199-.016.295-.037l.267 1.864 1.758 5.326-1.14-5.492-.701-1.748c.095-.031.186-.07.274-.114l.741 1.732 3.077 4.69-2.523-5.01-1.129-1.507c.083-.054.161-.115.235-.181l1.164 1.482L56.6 56.6l-3.734-4.186-1.482-1.165z" fill="#008"/></g><metadata xmlns:d="https://loading.io/stock/"><d:name>India</d:name><d:tags>India,national flag,country,nation symbol</d:tags><d:license>by</d:license><d:slug>rtyifd</d:slug></metadata></svg>