<svg width="19" height="20" viewBox="0 0 19 20" fill="none" xmlns="http://www.w3.org/2000/svg">
<path fill-rule="evenodd" clip-rule="evenodd" d="M9.0625 14.6875H10.9375V9.0625H9.0625V14.6875ZM10 0.625C4.825 0.625 0.625 4.825 0.625 10C0.625 15.175 4.825 19.375 10 19.375C15.175 19.375 19.375 15.175 19.375 10C19.375 4.825 15.175 0.625 10 0.625ZM10 17.5C5.86563 17.5 2.5 14.1344 2.5 10C2.5 5.86563 5.86563 2.5 10 2.5C14.1344 2.5 17.5 5.86563 17.5 10C17.5 14.1344 14.1344 17.5 10 17.5ZM9.0625 7.1875H10.9375V5.3125H9.0625V7.1875Z" fill="#8493AE"/>
</svg>
