<svg width="30" height="22" viewBox="0 0 30 22" fill="none" xmlns="http://www.w3.org/2000/svg">
<rect x="0.5" y="0.5" width="29" height="21" rx="2.5" fill="white" stroke="#D9DFEB"/>
<mask id="mask0_2_1002" style="mask-type:alpha" maskUnits="userSpaceOnUse" x="1" y="1" width="28" height="20">
<rect x="1.25" y="1.25" width="27.5" height="19.5" rx="1.75" fill="white" stroke="white" stroke-width="0.5"/>
</mask>
<g mask="url(#mask0_2_1002)">
<path fill-rule="evenodd" clip-rule="evenodd" d="M1 11.6667H29V1H1V11.6667Z" fill="#E12237"/>
<path fill-rule="evenodd" clip-rule="evenodd" d="M8.99996 2.99999C9.40971 2.99999 9.8022 3.07393 10.1648 3.20918C9.48029 2.66111 8.61173 2.33333 7.66663 2.33333C5.45749 2.33333 3.66663 4.12419 3.66663 6.33333C3.66663 8.54247 5.45749 10.3333 7.66663 10.3333C8.61174 10.3333 9.48029 10.0056 10.1648 9.45747C9.8022 9.59273 9.40971 9.66666 8.99996 9.66666C7.15901 9.66666 5.66663 8.17428 5.66663 6.33333C5.66663 4.49238 7.15901 2.99999 8.99996 2.99999ZM8.33329 6.33333C8.70148 6.33333 8.99996 6.03485 8.99996 5.66666C8.99996 5.29847 8.70148 4.99999 8.33329 4.99999C7.9651 4.99999 7.66663 5.29847 7.66663 5.66666C7.66663 6.03485 7.9651 6.33333 8.33329 6.33333ZM10.3333 8.33333C10.3333 8.70152 10.0348 9 9.66663 9C9.29844 9 8.99996 8.70152 8.99996 8.33333C8.99996 7.96514 9.29844 7.66666 9.66663 7.66666C10.0348 7.66666 10.3333 7.96514 10.3333 8.33333ZM12.3333 9C12.7015 9 13 8.70152 13 8.33333C13 7.96514 12.7015 7.66666 12.3333 7.66666C11.9651 7.66666 11.6666 7.96514 11.6666 8.33333C11.6666 8.70152 11.9651 9 12.3333 9ZM14.3333 5.66666C14.3333 6.03485 14.0348 6.33333 13.6666 6.33333C13.2984 6.33333 13 6.03485 13 5.66666C13 5.29847 13.2984 4.99999 13.6666 4.99999C14.0348 4.99999 14.3333 5.29847 14.3333 5.66666ZM11 4.33333C11.3681 4.33333 11.6666 4.03485 11.6666 3.66666C11.6666 3.29847 11.3681 2.99999 11 2.99999C10.6318 2.99999 10.3333 3.29847 10.3333 3.66666C10.3333 4.03485 10.6318 4.33333 11 4.33333Z" fill="white"/>
</g>
</svg>
