<svg width="32" height="32" viewBox="0 0 32 32" fill="none" xmlns="http://www.w3.org/2000/svg">
<path fill-rule="evenodd" clip-rule="evenodd" d="M16 1.33334L4 6.66667V14.6667C4 22.0667 9.12 28.9867 16 30.6667C22.88 28.9867 28 22.0667 28 14.6667V6.66667L16 1.33334Z" fill="#54CB83"/>
<path fill-rule="evenodd" clip-rule="evenodd" d="M6 16C6 21.5 10.5 26 16 26C21.5 26 26 21.5 26 16C26 10.5 21.5 6 16 6C10.5 6 6 10.5 6 16Z" fill="#54CB83"/>
<path fill-rule="evenodd" clip-rule="evenodd" d="M14.3 19.9333L11 16.6333L12.4 15.2333L14.3 17.1333L19.6 11.8333L21 13.2333L14.3 19.9333Z" fill="white"/>
</svg>
