<svg width="16" height="12" viewBox="0 0 16 12" fill="none" xmlns="http://www.w3.org/2000/svg">
<path d="M14 0H2C1.17275 0 0.5 0.67275 0.5 1.5V10.5C0.5 11.3273 1.17275 12 2 12H14C14.8273 12 15.5 11.3273 15.5 10.5V1.5C15.5 0.67275 14.8273 0 14 0ZM5.53625 3C6.3995 3 7.03625 3.63675 7.03625 4.5C7.03625 5.36325 6.3995 6 5.53625 6C4.673 6 4.03625 5.36325 4.03625 4.5C4.03625 3.63675 4.67225 3 5.53625 3ZM8.3225 9H2.75V8.65125C2.75 7.6215 4.007 6.5625 5.53625 6.5625C7.0655 6.5625 8.3225 7.6215 8.3225 8.65125V9ZM13.25 8.25H10.25V6.75H13.25V8.25ZM13.25 5.25H9.5V3.75H13.25V5.25Z" fill="#2A3752"/>
</svg>
